<svg width="44" height="44" viewBox="0 0 44 44" fill="none" xmlns="http://www.w3.org/2000/svg">
<g clip-path="url(#clip0_3_4)">
<rect width="44" height="44" fill="#00AD30"/>
<path d="M44 0H0V44H44V0ZM41.2623 22.2249C41.2623 22.2249 43.0304 26.2132 39.8509 28.0115C39.8509 28.0115 38.6286 29.2352 34.6606 28.8652L30.7669 22.1148L38.5548 17.5908L41.2623 22.2249ZM27.6577 2.45215C27.6577 2.45215 29.7111 2.51124 31.9837 6.17268L34.4576 10.3647L36.2068 9.42017L34.3938 13.3833L32.5835 17.3482L28.2764 16.6892L23.9668 16.0298L26.495 14.6635L22.1573 6.63216C22.1573 6.63216 20.4946 2.85151 17.461 2.46538L27.6577 2.45215ZM7.46847 36.4657L2.29958 27.68C2.29958 27.68 1.31062 25.879 3.31869 22.0672L5.68081 17.8098L3.98109 16.7802L8.31736 16.3358L12.6539 15.8925L14.264 19.9417L15.8776 23.9917L13.4205 22.5007L8.68753 30.3076C8.68761 30.3073 6.26664 33.6566 7.46847 36.4657ZM18.4097 39.3806L13.0398 39.2916C13.0398 39.2916 8.71383 38.7398 8.82279 35.0865C8.82279 35.0865 8.41157 33.4062 10.7862 30.2058L18.5774 30.3736L18.4097 39.3806ZM17.0994 14.7984L9.41752 10.0958L12.2111 5.51027C12.2111 5.51027 14.8772 2.05962 17.9712 4.00074C17.9712 4.00074 19.6297 4.49726 21.1892 8.16463L17.0994 14.7984ZM37.1114 37.3379C37.1114 37.3379 36.0833 39.1141 31.782 39.374L26.9158 39.5577V41.5476L24.2897 38.0687L21.6622 34.5906L24.2897 31.1132L26.9158 27.6351V30.5104H36.046C36.046 30.5104 40.1627 30.8426 41.9438 28.3582L37.1114 37.3379Z" fill="white"/>
</g>
<defs>
<clipPath id="clip0_3_4">
<rect width="44" height="44" fill="white"/>
</clipPath>
</defs>
</svg>
